<svg width="30" height="30" xmlns="http://www.w3.org/2000/svg"><g fill="#8D52BA" fill-rule="evenodd"><path d="M17.158 16.117l.599.6a3.337 3.337 0 0 0 .68-1.637h-.85a2.5 2.5 0 0 1-.43 1.037m.001-2.914c.216.302.366.655.43 1.037h.85a3.34 3.34 0 0 0-.68-1.637l-.6.6z"/><path d="M18.083 17.618c-.003.004-.004.009-.007.012-.004.004-.009.004-.012.008a4.187 4.187 0 0 1-5.917-.002c-.003-.002-.008-.002-.011-.007l-.007-.01a4.187 4.187 0 0 1-1.223-2.959c0-1.154.468-2.2 1.224-2.96l.007-.01c.002-.004.007-.004.01-.006a4.182 4.182 0 0 1 2.96-1.224c1.153 0 2.2.469 2.96 1.226.003.001.006.002.009.005a4.186 4.186 0 0 1 1.23 2.97 4.188 4.188 0 0 1-1.223 2.957m2.483-9.258H9.646c-.694 0-1.26.564-1.26 1.26v.42h.42a.42.42 0 0 1 .42.42v2.52c0 .231-.189.42-.42.42h-.42v2.52h.42a.42.42 0 0 1 .42.42v2.52c0 .231-.189.42-.42.42h-.42v.42c0 .695.566 1.26 1.26 1.26h10.92c.694 0 1.26-.565 1.26-1.26V9.62c0-.696-.566-1.26-1.26-1.26"/><path d="M12.624 15.08h-.85c.078.612.32 1.173.681 1.636l.6-.599a2.5 2.5 0 0 1-.431-1.037m2.062-2.902v-.849a3.336 3.336 0 0 0-1.637.68l.6.6a2.491 2.491 0 0 1 1.037-.431m-6.3 4.582h-.84v1.68h.84v-1.68zm8.777-4.751a3.336 3.336 0 0 0-1.637-.68v.849a2.51 2.51 0 0 1 1.038.43l.599-.6zm-1.637 5.132v.85a3.337 3.337 0 0 0 1.637-.68l-.6-.6a2.488 2.488 0 0 1-1.037.43m-2.477.17a3.344 3.344 0 0 0 1.637.68v-.85a2.48 2.48 0 0 1-1.037-.43l-.6.6zm3.737-2.651c0-.926-.753-1.68-1.68-1.68a1.681 1.681 0 1 0 1.68 1.68m-3.732-1.458l-.6-.6a3.336 3.336 0 0 0-.679 1.638h.849c.064-.382.214-.735.43-1.038M8.386 10.88h-.84v1.68h.84v-1.68z"/><path d="M20.566 21.8H9.646c-1.158 0-2.1-.942-2.1-2.1v-.42h-.42a.42.42 0 0 1-.42-.42v-2.52a.42.42 0 0 1 .42-.42h.42V13.4h-.42a.42.42 0 0 1-.42-.42v-2.52a.42.42 0 0 1 .42-.42h.42v-.42c0-1.158.942-2.1 2.1-2.1h10.92c1.158 0 2.1.942 2.1 2.1V19.7c0 1.158-.942 2.1-2.1 2.1M23.086 5H7.126c-1.158 0-2.1.942-2.1 2.1v15.12c0 1.014.722 1.862 1.68 2.057v.463a.42.42 0 0 0 .84 0v-.42h15.12v.42a.42.42 0 0 0 .84 0v-.463a2.103 2.103 0 0 0 1.68-2.057V7.1c0-1.158-.942-2.1-2.1-2.1"/></g></svg>