<svg width="30" height="30" xmlns="http://www.w3.org/2000/svg"><g fill="#8D52BA" fill-rule="evenodd"><path d="M17.802 18.82a1.849 1.849 0 0 0-1.318-.546 1.85 1.85 0 0 0-1.318.546l-.287.287a35.02 35.02 0 0 1-4.316-4.317l.287-.287a1.866 1.866 0 0 0 0-2.636l-1.582-1.582A1.852 1.852 0 0 0 7.95 9.74a1.85 1.85 0 0 0-1.318.545l-.867.868a2.617 2.617 0 0 0-.33 3.284 35.003 35.003 0 0 0 9.798 9.799 2.61 2.61 0 0 0 3.284-.331l.868-.868a1.867 1.867 0 0 0 0-2.636l-1.583-1.581zM15 5.722a.373.373 0 0 0 0 .746c4.522 0 8.202 3.679 8.202 8.202a.373.373 0 0 0 .745 0c0-4.933-4.013-8.948-8.947-8.948"/><path d="M15 9.45a5.226 5.226 0 0 1 5.22 5.22.373.373 0 0 0 .745 0A5.972 5.972 0 0 0 15 8.705a.373.373 0 0 0 0 .745m0 2.983a2.24 2.24 0 0 1 2.237 2.237.373.373 0 0 0 .745 0A2.986 2.986 0 0 0 15 11.687a.373.373 0 0 0 0 .746"/></g></svg>