<svg width="30" height="30" xmlns="http://www.w3.org/2000/svg"><path d="M24.583 6h-12.5a.417.417 0 0 0-.416.417v4.166c0 .23.186.417.416.417h12.5c.23 0 .417-.187.417-.417V6.417A.417.417 0 0 0 24.583 6m0 6.667h-12.5a.417.417 0 0 0-.416.416v4.167c0 .23.186.417.416.417h12.5c.23 0 .417-.187.417-.417v-4.167a.417.417 0 0 0-.417-.416m0 6.666h-12.5a.417.417 0 0 0-.416.417v4.167c0 .23.186.416.416.416h12.5c.23 0 .417-.186.417-.416V19.75a.417.417 0 0 0-.417-.417M9.583 6H5.417A.417.417 0 0 0 5 6.417v4.166c0 .23.187.417.417.417h4.166c.23 0 .417-.187.417-.417V6.417A.417.417 0 0 0 9.583 6m0 6.667H5.417a.417.417 0 0 0-.417.416v4.167c0 .23.187.417.417.417h4.166c.23 0 .417-.187.417-.417v-4.167a.417.417 0 0 0-.417-.416m0 6.666H5.417A.417.417 0 0 0 5 19.75v4.167c0 .23.187.416.417.416h4.166c.23 0 .417-.186.417-.416V19.75a.417.417 0 0 0-.417-.417" fill="#8D52BA" fill-rule="evenodd"/></svg>