<svg width="30" height="30" xmlns="http://www.w3.org/2000/svg"><g fill="#8D52BA" fill-rule="evenodd"><path d="M18.75 17.5h-7.5c-.173 0-.355-.24-.372-.683-.428.393-.934.683-1.503.683a.376.376 0 0 1 0-.75c1.027 0 1.994-1.731 2.28-2.398a.375.375 0 0 1 .345-.227h1.125c1.325 0 1.875-.977 1.875-1.5v-.375c0-.523-.55-1.5-1.875-1.5H9.75v.124c-1.486.32-3.75 1.43-3.75 5.25v2.501a4.13 4.13 0 0 0 4.125 4.125h5.625a1.502 1.502 0 0 0 1.298-2.25h1.702c.827 0 1.5-.673 1.5-1.5s-.673-1.5-1.5-1.5"/><path d="M19.875 11.5h2.25a.375.375 0 0 1 0 .75h-2.25a.376.376 0 0 1 0-.75M15.75 10H24V8.5c0-.827-.673-1.5-1.5-1.5H11.25c-.828 0-1.5.673-1.5 1.5V10h3.375c1.712 0 2.625 1.306 2.625 2.25v.375c0 .943-.913 2.25-2.625 2.25h-.884c-.197.41-.64 1.232-1.264 1.847.088.017.18.028.273.028H22.5c.827 0 1.5-.673 1.5-1.5v-4.5h-8.25a.376.376 0 0 1 0-.75"/></g></svg>