<svg width="30" height="30" xmlns="http://www.w3.org/2000/svg"><path d="M15 18.333A3.337 3.337 0 0 1 11.667 15 3.337 3.337 0 0 1 15 11.667 3.337 3.337 0 0 1 18.333 15 3.337 3.337 0 0 1 15 18.333m9.583-5h-2.379c-.166-.658-.378-1.389-.648-1.943l1.693-1.693a.416.416 0 0 0 0-.59l-2.357-2.355a.414.414 0 0 0-.59 0L18.61 8.444c-.555-.27-1.285-.481-1.942-.647v-2.38A.417.417 0 0 0 16.25 5h-2.5a.417.417 0 0 0-.417.417v2.38c-.658.166-1.389.377-1.942.647L9.697 6.752a.414.414 0 0 0-.59 0L6.75 9.108a.417.417 0 0 0 0 .589l1.694 1.694c-.268.552-.481 1.283-.648 1.942h-2.38A.417.417 0 0 0 5 13.75v2.5c0 .23.187.417.417.417h2.379c.167.659.38 1.39.648 1.943L6.75 20.304a.414.414 0 0 0 0 .588l2.358 2.357a.428.428 0 0 0 .589 0l1.694-1.693c.552.269 1.283.48 1.942.649v2.378c0 .23.187.417.417.417h2.5c.23 0 .417-.187.417-.417v-2.378c.658-.168 1.39-.38 1.942-.65l1.694 1.694a.415.415 0 0 0 .59 0l2.356-2.357a.414.414 0 0 0 0-.588l-1.693-1.694c.269-.553.481-1.284.648-1.943h2.38c.23 0 .416-.187.416-.417v-2.5a.417.417 0 0 0-.417-.417" fill="#8D52BA" fill-rule="evenodd"/></svg>