<svg width="30" height="30" xmlns="http://www.w3.org/2000/svg"><g fill="#8D52BA" fill-rule="evenodd"><path d="M7.845 14.833h9.238a.834.834 0 0 0 0-1.666H7.845l1.91-1.911a.832.832 0 1 0-1.177-1.179L5.244 13.41a.837.837 0 0 0 0 1.18l3.334 3.333a.831.831 0 0 0 1.178 0 .832.832 0 0 0 0-1.179l-1.91-1.91z"/><path d="M24.755 16.743l-3.332-3.332a.832.832 0 1 0-1.179 1.178l1.911 1.911h-9.238a.833.833 0 1 0 0 1.667h9.238l-1.91 1.91a.832.832 0 1 0 1.178 1.179l3.332-3.334a.837.837 0 0 0 0-1.179"/></g></svg>